<svg xmlns="http://www.w3.org/2000/svg" viewBox="0 0 1440 900" preserveAspectRatio="xMidYMid slice">
  <defs>
    <linearGradient id="g1" x1="0" y1="0" x2="0" y2="1">
      <stop offset="0%" stop-color="#111a2e"/>
      <stop offset="100%" stop-color="#0b1220"/>
    </linearGradient>
    <radialGradient id="sun" cx="70%" cy="25%" r="40%">
      <stop offset="0%" stop-color="#f6d899" stop-opacity=".9"/>
      <stop offset="60%" stop-color="#f6d899" stop-opacity="0"/>
    </radialGradient>
  </defs>
  <rect width="100%" height="100%" fill="url(#g1)"/>
  <circle cx="1000" cy="200" r="200" fill="url(#sun)"/>
  <g fill="#1b2744">
    <rect x="0" y="520" width="1440" height="380"/>
    <rect x="60" y="460" width="140" height="160"/>
    <rect x="220" y="430" width="120" height="190"/>
    <rect x="360" y="470" width="100" height="150"/>
    <rect x="500" y="420" width="140" height="200"/>
    <rect x="660" y="450" width="90" height="170"/>
    <rect x="770" y="480" width="110" height="140"/>
    <rect x="900" y="440" width="130" height="180"/>
    <rect x="1060" y="470" width="120" height="150"/>
    <rect x="1200" y="450" width="110" height="170"/>
  </g>
  <g stroke="#f0c36a" stroke-opacity=".35" stroke-width="2">
    <line x1="0" y1="520" x2="1440" y2="520"/>
    <line x1="0" y1="760" x2="1440" y2="760"/>
  </g>
  <g fill="#f0c36a" fill-opacity=".35">
    <circle cx="200" cy="540" r="3"/>
    <circle cx="380" cy="600" r="2.5"/>
    <circle cx="820" cy="560" r="3"/>
    <circle cx="1100" cy="590" r="2.5"/>
  </g>
</svg>


